<svg id="logo" xmlns="http://www.w3.org/2000/svg" xmlns:xlink="http://www.w3.org/1999/xlink" width="606" height="140" viewBox="0 0 606 140">
  <defs>
    <style>
      .cls-1, .cls-2 {
        fill: #fff;
        stroke: #fff;
        stroke-linejoin: round;
        stroke-width: 1px;
        fill-rule: evenodd;
      }

      .cls-1 {
        filter: url(#filter);
      }

      .cls-2 {
        filter: url(#filter-2);
      }
    </style>
    <filter id="filter" x="317" y="367" width="606" height="44" filterUnits="userSpaceOnUse">
      <feGaussianBlur result="blur" stdDeviation="3.333" in="SourceAlpha"/>
      <feComposite result="composite"/>
      <feComposite result="composite-2"/>
      <feComposite result="composite-3"/>
      <feFlood result="flood" flood-opacity="0.6"/>
      <feComposite result="composite-4" operator="in" in2="composite-3"/>
      <feBlend result="blend" in2="SourceGraphic"/>
      <feBlend result="blend-2" in="SourceGraphic"/>
    </filter>
    <filter id="filter-2" x="397" y="271" width="462" height="89" filterUnits="userSpaceOnUse">
      <feGaussianBlur result="blur" stdDeviation="2.667" in="SourceAlpha"/>
      <feComposite result="composite"/>
      <feComposite result="composite-2"/>
      <feComposite result="composite-3"/>
      <feFlood result="flood" flood-opacity="0.3"/>
      <feComposite result="composite-4" operator="in" in2="composite-3"/>
      <feBlend result="blend" in2="SourceGraphic"/>
      <feBlend result="blend-2" in="SourceGraphic"/>
    </filter>
  </defs>
  <g transform="translate(-317 -271)" style="fill: #fff; filter: url(#filter)">
    <path id="Trouvez_la_seule_menthe_au_chocolat_du_monde_" data-name="Trouvez la seule menthe au chocolat du monde !" class="cls-1" d="M336.657,399.02a16.7,16.7,0,0,1-1.872-.131l1.668-3.962L338,391.459l2.531-5.687q1.535-3.418,1.814-4.011,1.3,0.1,2.456.1a9.8,9.8,0,0,0,4.789-.9,3.276,3.276,0,0,0,1.777-2.153,1.216,1.216,0,0,0-.155-0.97,0.91,0.91,0,0,0-.78-0.362,1.292,1.292,0,0,0-1.231,1.036,3.232,3.232,0,0,0-.024.411,4.1,4.1,0,0,1-.034.46,1.377,1.377,0,0,1-.612.92,2.855,2.855,0,0,1-1.584.346,30.568,30.568,0,0,1-3.413-.3,41.839,41.839,0,0,0-4.825-.428,14.44,14.44,0,0,0-5.673,1.036,10.953,10.953,0,0,0-4.08,2.926,8.246,8.246,0,0,0-2,3.895,3.964,3.964,0,0,0,.2,2.466,1.086,1.086,0,0,0,1.041.657,1.389,1.389,0,0,0,.878-0.313,1.23,1.23,0,0,0,.48-0.757,1.437,1.437,0,0,0-.375-1.12,3.565,3.565,0,0,1-.577-0.955,2.18,2.18,0,0,1-.016-0.938,5.381,5.381,0,0,1,1.426-2.7,7.34,7.34,0,0,1,3.134-1.91,16.582,16.582,0,0,1,5.135-.659q0.512,0,1.511.05l-0.195.411-3.783,8.711q-2.418,5.459-2.987,6.37a3.794,3.794,0,0,1-1.2,1.29,6.443,6.443,0,0,1-2.637.69l-0.4.9a22.838,22.838,0,0,1,3.573-.3q0.99,0,2.219.1,1.63,0.148,2.348.148a10.521,10.521,0,0,0,1.975-.246l0.411-.937a11.658,11.658,0,0,1-2.443.279h0Zm10.322-2.531a39.879,39.879,0,0,1,1.9-4.084,12.241,12.241,0,0,1,1.7-2.063,12.556,12.556,0,0,1,2.063-1.759,9.148,9.148,0,0,1,2.238-.987,6.312,6.312,0,0,0,1.8-.739,1.237,1.237,0,0,0,.472-0.756,0.845,0.845,0,0,0-.2-0.748,1.008,1.008,0,0,0-.8-0.321,3.674,3.674,0,0,0-1.91.891,27.938,27.938,0,0,0-4.724,4.488l1.285-2.957a8.438,8.438,0,0,0,.433-1.14,0.361,0.361,0,0,0-.114-0.353,0.668,0.668,0,0,0-.462-0.14,7.129,7.129,0,0,0-2.656.847,16.758,16.758,0,0,0-3.735,2.539l0.424,0.575a20.969,20.969,0,0,1,2.219-1.668,2.1,2.1,0,0,1,.847-0.337,0.283,0.283,0,0,1,.3.4,7.379,7.379,0,0,1-.32.9q-1.185,2.925-2.653,6.18l-2.006,4.422h2.546Zm9.891-7a13.119,13.119,0,0,0-3.219,6.377A3.784,3.784,0,0,0,354.2,399a3.275,3.275,0,0,0,2.736,1.15q2.973,0,6.169-2.9a11.61,11.61,0,0,0,3.865-6.55,4.706,4.706,0,0,0-.457-3.567,2.891,2.891,0,0,0-2.549-1.282q-3.844,0-7.089,3.633h0Zm6.952-1.348a6.266,6.266,0,0,1,.047,3.517,11.416,11.416,0,0,1-2.512,5.507,4.086,4.086,0,0,1-2.927,1.709,1.528,1.528,0,0,1-1.474-.9,5.43,5.43,0,0,1-.22-3.369,11.438,11.438,0,0,1,2.369-5.515q1.724-2,3.176-2A1.628,1.628,0,0,1,363.822,388.139Zm14.018,4.9a9.189,9.189,0,0,1-2.938,3.46,6.225,6.225,0,0,1-2.992,1.52,0.554,0.554,0,0,1-.458-0.246,0.727,0.727,0,0,1-.122-0.593,41.955,41.955,0,0,1,1.929-4.559,35.382,35.382,0,0,0,2.252-5.58,1.19,1.19,0,0,0-.092-0.9,0.7,0.7,0,0,0-.613-0.288,5.321,5.321,0,0,0-2.052.616,26.574,26.574,0,0,0-3.968,2.589l0.647,0.576a17.1,17.1,0,0,1,2.08-1.472,2.2,2.2,0,0,1,.893-0.3q0.34,0,.257.461a33.7,33.7,0,0,1-2.016,4.757q-1.479,3.127-1.891,4.164a7.569,7.569,0,0,0-.407,1.382,1.586,1.586,0,0,0,.121,1.2,1,1,0,0,0,.87.379,6.337,6.337,0,0,0,2.731-.839,19.362,19.362,0,0,0,4.294-2.942,11.015,11.015,0,0,0-.789,2.285,1.4,1.4,0,0,0,.175,1.142,1.022,1.022,0,0,0,.858.4q1.622,0,5.686-3.436l-0.453-.608a26.829,26.829,0,0,1-2.484,1.907,1.583,1.583,0,0,1-.729.246,0.373,0.373,0,0,1-.311-0.164,0.593,0.593,0,0,1-.067-0.476,51.547,51.547,0,0,1,2.462-5.7l2.658-5.745h-2.432Zm16.527-6.542a0.534,0.534,0,0,0-.138-0.46,0.578,0.578,0,0,0-.456-0.214,6.171,6.171,0,0,0-1.468.46,17.364,17.364,0,0,0-4.414.411,5.658,5.658,0,0,0-2.531,1.225,3.213,3.213,0,0,0-.986,1.751,1.283,1.283,0,0,0,.129.969,0.777,0.777,0,0,0,.686.362,0.973,0.973,0,0,0,.61-0.206,0.771,0.771,0,0,0,.316-0.468,1.629,1.629,0,0,0-.037-0.641,2.07,2.07,0,0,1-.1-0.773,1.607,1.607,0,0,1,1.106-1,12.726,12.726,0,0,1,4.422-.641,10.749,10.749,0,0,0-3.053,2.868,8.635,8.635,0,0,0-1.48,3.41,27.305,27.305,0,0,0-.167,4.734q0.049,1.694.027,2.466A27.013,27.013,0,0,0,396,394.467a13.482,13.482,0,0,0,3.83-6.821,2.579,2.579,0,0,0-.052-1.587,0.865,0.865,0,0,0-.819-0.468,1.18,1.18,0,0,0-.793.321,1.283,1.283,0,0,0-.445.747,2.725,2.725,0,0,0,.2,1.217,2.691,2.691,0,0,1,.158,1.282,9.78,9.78,0,0,1-2.332,4.15,28.152,28.152,0,0,1-6.294,5.17,22.905,22.905,0,0,1,.161-4.422,11.275,11.275,0,0,1,1.067-3.074,19.989,19.989,0,0,1,2.473-3.566,1.652,1.652,0,0,0,1.211-.921h0Zm10.089,11.128a4.255,4.255,0,0,1-1.607.378,1.139,1.139,0,0,1-1.034-.46,2.381,2.381,0,0,1-.086-1.628,10.91,10.91,0,0,1,.464-1.693q3.5-1.413,4.6-1.956a11.447,11.447,0,0,0,3.144-2.153,4.263,4.263,0,0,0,1.154-2.1,1.777,1.777,0,0,0-.346-1.6,2.271,2.271,0,0,0-1.747-.584q-3.468,0-6.687,3.961a15.569,15.569,0,0,0-3.5,7,3.666,3.666,0,0,0,.176,2.531,1.86,1.86,0,0,0,1.709.789q2.99,0,7.877-3.83l-0.431-.723a27.778,27.778,0,0,1-3.677,2.071h0Zm-0.08-8.136a5.942,5.942,0,0,1,1.686-1.841,2.363,2.363,0,0,1,1.315-.461,1.068,1.068,0,0,1,.922.42,1.411,1.411,0,0,1,.178,1.125,3.443,3.443,0,0,1-1.286,1.891,17.143,17.143,0,0,1-4.6,2.547,19.343,19.343,0,0,1,1.785-3.681h0Zm15.8,0.638q-2.327,1.889-5.379,4.187-4.518,3.4-5.673,4.482a1.429,1.429,0,0,0-.484.683c-0.037.2,0.156,0.3,0.577,0.3a1.574,1.574,0,0,0,.838-0.373,2.826,2.826,0,0,1,1.456-.586,11.372,11.372,0,0,1,2.9.578,13.432,13.432,0,0,0,3.611.71,6.337,6.337,0,0,0,2.713-.544A6.209,6.209,0,0,0,422.784,398a4.186,4.186,0,0,0,1.055-1.938,1.3,1.3,0,0,0-.15-1,0.858,0.858,0,0,0-.757-0.387,1.1,1.1,0,0,0-.735.279,1.147,1.147,0,0,0-.4.674,1.744,1.744,0,0,0,.1.756,1.655,1.655,0,0,1,.129.789,1.269,1.269,0,0,1-.534.814,1.938,1.938,0,0,1-1.16.32,8.907,8.907,0,0,1-2.861-.608,18.128,18.128,0,0,0-1.929-.567,7,7,0,0,0-1.378-.123q-0.548,0-1.54.105,1.777-1.312,4.492-3.448l6.19-4.877q2.415-1.905,3.123-2.6a0.7,0.7,0,0,0,.254-0.362,0.273,0.273,0,0,0-.1-0.238,0.44,0.44,0,0,0-.328-0.124,1.422,1.422,0,0,0-.663.263,3.337,3.337,0,0,1-1.834.592,21.508,21.508,0,0,1-2.915-.312,13.373,13.373,0,0,0-2-.2,4.273,4.273,0,0,0-2.556.806,3.04,3.04,0,0,0-1.326,1.923,1.844,1.844,0,0,0,.255,1.454,1.227,1.227,0,0,0,1.029.584,0.93,0.93,0,0,0,.587-0.222,0.838,0.838,0,0,0,.331-0.5q0.108-.592-0.645-0.674a0.467,0.467,0,0,1-.5-0.608,0.925,0.925,0,0,1,.382-0.592,1.371,1.371,0,0,1,.828-0.23q0.409,0,1.6.131,0.855,0.083,1.573.082a12.1,12.1,0,0,0,2.928-.411Zm17.808,7.777a2.905,2.905,0,0,1-1.172.428c-0.262,0-.361-0.176-0.3-0.526q0.042-.231,2.255-5.408l2.967-6.887q1.581-3.714,2.213-4.973a4.47,4.47,0,0,1,1.2-1.652,1.936,1.936,0,0,1,1.107-.279,9.089,9.089,0,0,1,1.49.132,8.43,8.43,0,0,0,1.417.164,2.1,2.1,0,0,0,1.254-.339,1.343,1.343,0,0,0,.567-0.869,0.855,0.855,0,0,0-.267-0.819,1.524,1.524,0,0,0-1.089-.34,9.207,9.207,0,0,0-4.29,1.114,9.942,9.942,0,0,0-3.568,3.127,36.337,36.337,0,0,0-2.65,5.244l-3.164,7.215a33.047,33.047,0,0,0-2.058,5.457,1.365,1.365,0,0,0,.147,1.06,0.914,0.914,0,0,0,.8.387,7.075,7.075,0,0,0,3.216-1.192,21.76,21.76,0,0,0,3.635-2.638l-0.472-.592a21.991,21.991,0,0,1-3.238,2.186h0Zm17.5-11.686a9.241,9.241,0,0,0-1.1-.066,9.548,9.548,0,0,0-3.668.624,14.151,14.151,0,0,0-3.886,2.565,18.546,18.546,0,0,0-3.3,3.879,11.218,11.218,0,0,0-1.676,3.879,3.308,3.308,0,0,0,.284,2.367,1.5,1.5,0,0,0,1.4.674,5.247,5.247,0,0,0,2.428-.756,18.664,18.664,0,0,0,4.035-2.91l-1.093,2.236a2.7,2.7,0,0,0-.26.674,0.635,0.635,0,0,0,.116.575,0.838,0.838,0,0,0,.631.2,4.152,4.152,0,0,0,1.306-.23,11.791,11.791,0,0,0,2.28-1.068q0.612-.361,2.873-2.071l-0.429-.641a14.5,14.5,0,0,1-2.31,1.512,2.494,2.494,0,0,1-.934.345q-0.427,0-.334-0.51a16.688,16.688,0,0,1,.791-2.268q1.276-3.238,2.5-5.72l2.043-4.158-1.17.23Zm-4.409,7a9.23,9.23,0,0,1-2.628,3.526,4.766,4.766,0,0,1-2.752,1.224,1.019,1.019,0,0,1-.935-0.493,2.38,2.38,0,0,1-.1-1.611,11.615,11.615,0,0,1,1.755-4.216,9.519,9.519,0,0,1,2.663-2.926,5.216,5.216,0,0,1,2.831-.813,7.789,7.789,0,0,1,1.521.181Zm19.457-6.157a4.581,4.581,0,0,0-1.865,2.815,4.655,4.655,0,0,0,1.1,3.661,11.872,11.872,0,0,1,1.291,1.954,1.992,1.992,0,0,1,.15,1.182,2.731,2.731,0,0,1-.615,1.223,3.1,3.1,0,0,1-1.258.919,4.446,4.446,0,0,1-1.673.3,1.652,1.652,0,0,1-1.19-.378,0.951,0.951,0,0,1-.308-0.921c0.018-.1.044-0.219,0.077-0.362,0.048-.175.081-0.317,0.1-0.427a0.784,0.784,0,0,0-.211-0.715,1,1,0,0,0-.764-0.3,1.5,1.5,0,0,0-.992.378,1.6,1.6,0,0,0-.551.954,2.038,2.038,0,0,0,.632,1.964,4.15,4.15,0,0,0,2.877.8,6.9,6.9,0,0,0,4.2-1.305,4.882,4.882,0,0,0,2.1-3.045,4.58,4.58,0,0,0-1.222-3.678,8.9,8.9,0,0,1-1.351-2.044,2.49,2.49,0,0,1-.1-1.305,2.11,2.11,0,0,1,.774-1.288,2.078,2.078,0,0,1,1.334-.518,1.79,1.79,0,0,1,1.461,1.069,2.338,2.338,0,0,0,.555.7,0.957,0.957,0,0,0,.538.14,1.413,1.413,0,0,0,.906-0.329,1.276,1.276,0,0,0,.492-0.772,1.3,1.3,0,0,0-.59-1.307,3.627,3.627,0,0,0-2.244-.567A5.826,5.826,0,0,0,470.535,387.061Zm10.842,10.562a4.255,4.255,0,0,1-1.607.378,1.138,1.138,0,0,1-1.034-.46,2.381,2.381,0,0,1-.086-1.628,10.91,10.91,0,0,1,.464-1.693q3.5-1.413,4.6-1.956a11.447,11.447,0,0,0,3.144-2.153,4.263,4.263,0,0,0,1.154-2.1,1.774,1.774,0,0,0-.347-1.6,2.269,2.269,0,0,0-1.746-.584q-3.468,0-6.687,3.961a15.548,15.548,0,0,0-3.5,7,3.666,3.666,0,0,0,.176,2.531,1.86,1.86,0,0,0,1.709.789q2.989,0,7.877-3.83l-0.432-.723a27.718,27.718,0,0,1-3.676,2.071h0Zm-0.081-8.136a5.956,5.956,0,0,1,1.687-1.841,2.363,2.363,0,0,1,1.315-.461,1.068,1.068,0,0,1,.922.42,1.411,1.411,0,0,1,.178,1.125,3.443,3.443,0,0,1-1.286,1.891,17.135,17.135,0,0,1-4.6,2.547,19.464,19.464,0,0,1,1.785-3.681h0Zm16.837,3.55a9.2,9.2,0,0,1-2.938,3.46,6.229,6.229,0,0,1-2.992,1.52,0.555,0.555,0,0,1-.459-0.246,0.731,0.731,0,0,1-.122-0.593,42.192,42.192,0,0,1,1.929-4.559,35.324,35.324,0,0,0,2.253-5.58,1.2,1.2,0,0,0-.092-0.9,0.7,0.7,0,0,0-.614-0.288,5.325,5.325,0,0,0-2.052.616,26.579,26.579,0,0,0-3.967,2.589l0.646,0.576a17.176,17.176,0,0,1,2.08-1.472,2.2,2.2,0,0,1,.893-0.3c0.228,0,.313.154,0.257,0.461a33.434,33.434,0,0,1-2.016,4.757q-1.479,3.127-1.89,4.164a7.49,7.49,0,0,0-.407,1.382,1.581,1.581,0,0,0,.121,1.2,1,1,0,0,0,.869.379,6.333,6.333,0,0,0,2.731-.839,19.338,19.338,0,0,0,4.294-2.942,10.941,10.941,0,0,0-.788,2.285,1.4,1.4,0,0,0,.175,1.142,1.02,1.02,0,0,0,.857.4q1.623,0,5.686-3.436l-0.452-.608a26.792,26.792,0,0,1-2.485,1.907,1.583,1.583,0,0,1-.728.246,0.373,0.373,0,0,1-.312-0.164,0.593,0.593,0,0,1-.066-0.476,51.424,51.424,0,0,1,2.461-5.7l2.658-5.745h-2.432Zm9.788,4.865a2.905,2.905,0,0,1-1.172.428c-0.262,0-.361-0.176-0.3-0.526q0.042-.231,2.254-5.408l2.967-6.887q1.583-3.714,2.213-4.973a4.47,4.47,0,0,1,1.2-1.652,1.933,1.933,0,0,1,1.106-.279,9.11,9.11,0,0,1,1.491.132,8.41,8.41,0,0,0,1.416.164,2.1,2.1,0,0,0,1.254-.339,1.344,1.344,0,0,0,.568-0.869,0.855,0.855,0,0,0-.268-0.819,1.524,1.524,0,0,0-1.089-.34,9.214,9.214,0,0,0-4.29,1.114,9.939,9.939,0,0,0-3.567,3.127,36.231,36.231,0,0,0-2.65,5.244l-3.165,7.215a33.145,33.145,0,0,0-2.058,5.457,1.374,1.374,0,0,0,.147,1.06,0.915,0.915,0,0,0,.8.387A7.068,7.068,0,0,0,508,398.946a21.76,21.76,0,0,0,3.635-2.638l-0.472-.592a21.991,21.991,0,0,1-3.238,2.186h0Zm9.824-.279a4.255,4.255,0,0,1-1.607.378,1.138,1.138,0,0,1-1.034-.46,2.38,2.38,0,0,1-.087-1.628,10.919,10.919,0,0,1,.465-1.693q3.5-1.413,4.594-1.956a11.439,11.439,0,0,0,3.145-2.153,4.263,4.263,0,0,0,1.154-2.1,1.774,1.774,0,0,0-.347-1.6,2.269,2.269,0,0,0-1.746-.584q-3.468,0-6.687,3.961a15.548,15.548,0,0,0-3.5,7,3.666,3.666,0,0,0,.176,2.531,1.86,1.86,0,0,0,1.709.789q2.99,0,7.876-3.83l-0.431-.723a27.718,27.718,0,0,1-3.676,2.071h0Zm-0.081-8.136a5.956,5.956,0,0,1,1.687-1.841,2.363,2.363,0,0,1,1.315-.461,1.068,1.068,0,0,1,.922.42,1.411,1.411,0,0,1,.178,1.125,3.448,3.448,0,0,1-1.286,1.891,17.135,17.135,0,0,1-4.6,2.547,19.343,19.343,0,0,1,1.785-3.681h0Zm18.987-1.726q0.308,0,.239.378-0.056.3-1.532,3.7l-3.367,7.841h2.454l2.331-5.556a12.784,12.784,0,0,1,1.881-3.329,12.173,12.173,0,0,1,2.844-2.26,3.7,3.7,0,0,1,1.559-.69,0.443,0.443,0,0,1,.367.14,0.49,0.49,0,0,1,.062.4,11.545,11.545,0,0,1-.5,1.25L538.6,399.678h2.426q1.034-2.565,2.922-6.625a9.734,9.734,0,0,1,1.693-2.712,11.429,11.429,0,0,1,2.842-2.087,2.971,2.971,0,0,1,1.22-.411c0.342,0,.478.186,0.41,0.559a21.35,21.35,0,0,1-1.489,3.369q-1.839,3.7-2.272,4.759a9.556,9.556,0,0,0-.578,1.849,1.858,1.858,0,0,0,.147,1.34,0.927,0.927,0,0,0,.817.485,4.2,4.2,0,0,0,1.776-.559,20.631,20.631,0,0,0,2.15-1.48q1.151-.87,1.561-1.15l-0.456-.592a21.09,21.09,0,0,1-2.38,1.709,1.336,1.336,0,0,1-.668.2c-0.319,0-.444-0.187-0.376-0.559a33.98,33.98,0,0,1,2.28-5.079q1.706-3.435,2-4.109a5.5,5.5,0,0,0,.385-1.167,1.474,1.474,0,0,0-.17-1.217,1.263,1.263,0,0,0-1.039-.394,5.976,5.976,0,0,0-2.389.813,21.986,21.986,0,0,0-3.892,2.77,10.893,10.893,0,0,0,.942-2.351,1.156,1.156,0,0,0-.118-0.936,0.961,0.961,0,0,0-.8-0.3q-2.163,0-6.987,4.01,0.3-.805.948-2.186a6.578,6.578,0,0,0,.5-1.266,0.427,0.427,0,0,0-.1-0.41,0.723,0.723,0,0,0-.513-0.148,6.75,6.75,0,0,0-2.541.772,17.72,17.72,0,0,0-3.655,2.4l0.392,0.658q2.393-1.875,3.059-1.874h0Zm22.364,9.862a4.251,4.251,0,0,1-1.606.378,1.14,1.14,0,0,1-1.035-.46,2.381,2.381,0,0,1-.086-1.628,10.91,10.91,0,0,1,.464-1.693q3.5-1.413,4.6-1.956a11.455,11.455,0,0,0,3.145-2.153,4.271,4.271,0,0,0,1.154-2.1,1.777,1.777,0,0,0-.347-1.6,2.271,2.271,0,0,0-1.747-.584q-3.468,0-6.687,3.961a15.569,15.569,0,0,0-3.5,7,3.659,3.659,0,0,0,.177,2.531,1.857,1.857,0,0,0,1.709.789q2.988,0,7.876-3.83l-0.431-.723a27.714,27.714,0,0,1-3.677,2.071h0Zm-0.08-8.136a5.944,5.944,0,0,1,1.687-1.841,2.362,2.362,0,0,1,1.314-.461,1.068,1.068,0,0,1,.922.42,1.407,1.407,0,0,1,.178,1.125,3.443,3.443,0,0,1-1.286,1.891,17.127,17.127,0,0,1-4.6,2.547,19.343,19.343,0,0,1,1.785-3.681h0ZM569.5,388.06a1.964,1.964,0,0,1,.849-0.349c0.228,0,.315.149,0.261,0.445a3.365,3.365,0,0,1-.185.543l-2.667,6.254q-0.942,2.256-2.113,4.725h2.546l2.436-5.745a9.541,9.541,0,0,1,1.663-2.831,13.7,13.7,0,0,1,3.123-2.4,4.213,4.213,0,0,1,1.886-.692q0.631,0,.539.51a19.744,19.744,0,0,1-1.024,2.416q-2.962,5.819-3.231,7.282a2.184,2.184,0,0,0,.09,1.471,1,1,0,0,0,.925.452,4.34,4.34,0,0,0,1.9-.654,20.04,20.04,0,0,0,3.754-2.683l-0.318-.592q-0.855.56-1.726,1.217a3.848,3.848,0,0,1-1.724.92,0.258,0.258,0,0,1-.259-0.168,0.929,0.929,0,0,1-.01-0.506,22.009,22.009,0,0,1,1.906-4.454q1.813-3.584,2.282-4.652a5.691,5.691,0,0,0,.364-1.15,1.51,1.51,0,0,0-.159-1.184,1.111,1.111,0,0,0-.964-0.411,5.68,5.68,0,0,0-2.457.839,27.156,27.156,0,0,0-5,3.472l1.376-3.308a3.231,3.231,0,0,0,.182-0.526,0.346,0.346,0,0,0-.142-0.345,0.825,0.825,0,0,0-.537-0.148,5.866,5.866,0,0,0-2.344.661,22.8,22.8,0,0,0-3.978,2.675l0.476,0.576a13.706,13.706,0,0,1,2.285-1.657h0Zm17.631-1.138h-2.77l-0.521,1.168H586.6l-2.937,6.541a17.8,17.8,0,0,0-1.312,3.616,2.066,2.066,0,0,0,.1,1.447,1.009,1.009,0,0,0,.918.444,5.818,5.818,0,0,0,2.144-.608,56.034,56.034,0,0,0,5.614-3.321l-0.511-.756a27.312,27.312,0,0,1-3.067,1.825,4.631,4.631,0,0,1-1.735.608,0.61,0.61,0,0,1-.5-0.2,0.787,0.787,0,0,1-.079-0.641,17.477,17.477,0,0,1,1.342-3.45l2.5-5.508h3.539l0.488-1.168H589.57l2.071-4.6-2.9,1Zm17.621,10.487a4.4,4.4,0,0,1-1.709.937,0.267,0.267,0,0,1-.258-0.131,0.632,0.632,0,0,1-.021-0.395,7.682,7.682,0,0,1,.477-1.529q0.354-.853,2.112-4.372,1.288-2.547,1.69-3.517a5.309,5.309,0,0,0,.342-1.118,1.247,1.247,0,0,0-.184-1.052,1.181,1.181,0,0,0-.974-0.378,5.689,5.689,0,0,0-2.411.837,28.411,28.411,0,0,0-5.064,3.463l3.392-8.113a10.316,10.316,0,0,1,1.553-2.874,1.914,1.914,0,0,1,1.4-.611,16.413,16.413,0,0,1,2,.209,7.978,7.978,0,0,0,1.045.087,2.022,2.022,0,0,0,1.2-.342,1.26,1.26,0,0,0,.564-0.791,0.924,0.924,0,0,0-.265-0.884,1.529,1.529,0,0,0-1.1-.35,8.709,8.709,0,0,0-3.734.941,10.576,10.576,0,0,0-3.382,2.517,16.031,16.031,0,0,0-2.626,4.5l-4.443,10.541q-0.779,1.822-2.125,4.7h2.546l2.4-5.741a9.2,9.2,0,0,1,1.7-2.8,13.869,13.869,0,0,1,3.117-2.427,4.252,4.252,0,0,1,1.925-.688,0.406,0.406,0,0,1,.486.526,18.776,18.776,0,0,1-1.017,2.383q-2.075,4.143-2.587,5.4a10.7,10.7,0,0,0-.633,1.914,2.087,2.087,0,0,0,.105,1.431,0.962,0.962,0,0,0,.881.46,4.591,4.591,0,0,0,1.986-.674,19.474,19.474,0,0,0,3.716-2.663l-0.333-.608q-1.035.707-1.76,1.216h0Zm8.827,0.214a4.255,4.255,0,0,1-1.607.378,1.14,1.14,0,0,1-1.035-.46,2.387,2.387,0,0,1-.086-1.628,10.91,10.91,0,0,1,.464-1.693q3.505-1.413,4.6-1.956a11.439,11.439,0,0,0,3.145-2.153,4.263,4.263,0,0,0,1.154-2.1,1.774,1.774,0,0,0-.347-1.6,2.27,2.27,0,0,0-1.746-.584q-3.468,0-6.688,3.961a15.569,15.569,0,0,0-3.5,7,3.659,3.659,0,0,0,.177,2.531,1.858,1.858,0,0,0,1.709.789q2.989,0,7.876-3.83l-0.431-.723a27.782,27.782,0,0,1-3.676,2.071h0Zm-0.081-8.136a5.956,5.956,0,0,1,1.687-1.841,2.362,2.362,0,0,1,1.314-.461,1.07,1.07,0,0,1,.923.42,1.411,1.411,0,0,1,.178,1.125,3.448,3.448,0,0,1-1.286,1.891,17.135,17.135,0,0,1-4.6,2.547,19.343,19.343,0,0,1,1.785-3.681h0Zm27.333-3.271a9.241,9.241,0,0,0-1.1-.066,9.552,9.552,0,0,0-3.668.624,14.166,14.166,0,0,0-3.886,2.565,18.546,18.546,0,0,0-3.3,3.879A11.237,11.237,0,0,0,627.2,397.1a3.308,3.308,0,0,0,.284,2.367,1.5,1.5,0,0,0,1.4.674,5.247,5.247,0,0,0,2.427-.756,18.664,18.664,0,0,0,4.035-2.91l-1.093,2.236a2.737,2.737,0,0,0-.26.674,0.632,0.632,0,0,0,.117.575,0.837,0.837,0,0,0,.63.2,4.152,4.152,0,0,0,1.306-.23,11.764,11.764,0,0,0,2.28-1.068q0.612-.361,2.873-2.071l-0.429-.641a14.457,14.457,0,0,1-2.31,1.512,2.494,2.494,0,0,1-.934.345q-0.427,0-.334-0.51a16.6,16.6,0,0,1,.792-2.268q1.276-3.238,2.5-5.72l2.043-4.158-1.169.23Zm-4.409,7a9.23,9.23,0,0,1-2.628,3.526,4.763,4.763,0,0,1-2.752,1.224,1.019,1.019,0,0,1-.935-0.493,2.386,2.386,0,0,1-.1-1.611,11.65,11.65,0,0,1,1.755-4.216,9.531,9.531,0,0,1,2.663-2.926,5.216,5.216,0,0,1,2.831-.813,7.806,7.806,0,0,1,1.522.181Zm16.29-.181a9.189,9.189,0,0,1-2.938,3.46,6.229,6.229,0,0,1-2.992,1.52,0.557,0.557,0,0,1-.459-0.246,0.727,0.727,0,0,1-.121-0.593,42.063,42.063,0,0,1,1.928-4.559,35.324,35.324,0,0,0,2.253-5.58,1.19,1.19,0,0,0-.092-0.9,0.7,0.7,0,0,0-.613-0.288,5.321,5.321,0,0,0-2.052.616,26.574,26.574,0,0,0-3.968,2.589l0.646,0.576a17.08,17.08,0,0,1,2.081-1.472,2.195,2.195,0,0,1,.892-0.3q0.342,0,.258.461a33.634,33.634,0,0,1-2.017,4.757q-1.478,3.127-1.89,4.164a7.569,7.569,0,0,0-.407,1.382,1.586,1.586,0,0,0,.121,1.2,1,1,0,0,0,.869.379,6.333,6.333,0,0,0,2.731-.839,19.345,19.345,0,0,0,4.3-2.942,10.956,10.956,0,0,0-.789,2.285,1.4,1.4,0,0,0,.175,1.142,1.021,1.021,0,0,0,.857.4q1.623,0,5.686-3.436l-0.452-.608a26.792,26.792,0,0,1-2.485,1.907,1.583,1.583,0,0,1-.728.246,0.375,0.375,0,0,1-.312-0.164,0.6,0.6,0,0,1-.066-0.476,51.65,51.65,0,0,1,2.461-5.7l2.659-5.745h-2.433Zm17.737,5.309a1.216,1.216,0,0,1-1.178-.656,3.642,3.642,0,0,1-.19-2.413,14.265,14.265,0,0,1,1.525-4.218,9.01,9.01,0,0,1,2.1-2.831,3.041,3.041,0,0,1,1.8-.73,2.94,2.94,0,0,1,1.521.559,2.876,2.876,0,0,0,1.44.526,1.572,1.572,0,0,0,1.016-.321,1.342,1.342,0,0,0,.494-0.83,1.108,1.108,0,0,0-.445-1.118,2.9,2.9,0,0,0-1.828-.46,7.11,7.11,0,0,0-3.83,1.134,15.313,15.313,0,0,0-4.256,4.208,13.648,13.648,0,0,0-2.414,5.342,4.193,4.193,0,0,0,.2,2.581,1.969,1.969,0,0,0,1.975,1.019q2.8,0,7.43-3.074l-0.184-.953q-3.177,2.235-5.176,2.235h0Zm19.628-.937a4.389,4.389,0,0,1-1.709.937,0.265,0.265,0,0,1-.257-0.131,0.624,0.624,0,0,1-.022-0.395,7.682,7.682,0,0,1,.477-1.529q0.354-.853,2.112-4.372,1.29-2.547,1.69-3.517a5.194,5.194,0,0,0,.342-1.118,1.251,1.251,0,0,0-.183-1.052,1.183,1.183,0,0,0-.974-0.378,5.681,5.681,0,0,0-2.411.837,28.34,28.34,0,0,0-5.064,3.463l3.392-8.113a10.322,10.322,0,0,1,1.552-2.874,1.914,1.914,0,0,1,1.395-.611,16.413,16.413,0,0,1,2,.209,7.978,7.978,0,0,0,1.045.087,2.02,2.02,0,0,0,1.2-.342,1.26,1.26,0,0,0,.564-0.791,0.924,0.924,0,0,0-.265-0.884,1.528,1.528,0,0,0-1.1-.35,8.713,8.713,0,0,0-3.735.941,10.587,10.587,0,0,0-3.382,2.517,16.055,16.055,0,0,0-2.626,4.5l-4.443,10.541q-0.779,1.822-2.124,4.7h2.545l2.4-5.741a9.237,9.237,0,0,1,1.695-2.8,13.869,13.869,0,0,1,3.117-2.427,4.256,4.256,0,0,1,1.925-.688,0.406,0.406,0,0,1,.486.526,18.776,18.776,0,0,1-1.017,2.383q-2.074,4.143-2.587,5.4a10.76,10.76,0,0,0-.632,1.914,2.076,2.076,0,0,0,.105,1.431,0.961,0.961,0,0,0,.881.46,4.591,4.591,0,0,0,1.985-.674,19.474,19.474,0,0,0,3.716-2.663l-0.332-.608q-1.035.707-1.761,1.216h0Zm6.714-7.922a13.11,13.11,0,0,0-3.219,6.377,3.777,3.777,0,0,0,.544,3.14,3.274,3.274,0,0,0,2.736,1.15q2.971,0,6.168-2.9a11.61,11.61,0,0,0,3.865-6.55,4.707,4.707,0,0,0-.456-3.567,2.894,2.894,0,0,0-2.55-1.282q-3.843,0-7.088,3.633h0Zm6.951-1.348a6.254,6.254,0,0,1,.048,3.517,11.408,11.408,0,0,1-2.513,5.507,4.084,4.084,0,0,1-2.926,1.709,1.53,1.53,0,0,1-1.475-.9,5.438,5.438,0,0,1-.219-3.369,11.438,11.438,0,0,1,2.368-5.515q1.725-2,3.176-2A1.627,1.627,0,0,1,703.739,388.139Zm7.978,10.207a1.216,1.216,0,0,1-1.178-.656,3.636,3.636,0,0,1-.19-2.413,14.262,14.262,0,0,1,1.524-4.218,9.025,9.025,0,0,1,2.1-2.831,3.046,3.046,0,0,1,1.8-.73,2.94,2.94,0,0,1,1.52.559,2.876,2.876,0,0,0,1.441.526,1.571,1.571,0,0,0,1.015-.321,1.338,1.338,0,0,0,.494-0.83,1.109,1.109,0,0,0-.444-1.118,2.9,2.9,0,0,0-1.829-.46,7.106,7.106,0,0,0-3.829,1.134,15.3,15.3,0,0,0-4.256,4.208,13.619,13.619,0,0,0-2.414,5.342,4.178,4.178,0,0,0,.2,2.581,1.967,1.967,0,0,0,1.974,1.019q2.8,0,7.43-3.074l-0.184-.953q-3.177,2.235-5.175,2.235h0Zm10.95-8.859a13.108,13.108,0,0,0-3.218,6.377,3.781,3.781,0,0,0,.543,3.14,3.275,3.275,0,0,0,2.736,1.15q2.973,0,6.169-2.9a11.61,11.61,0,0,0,3.865-6.55,4.706,4.706,0,0,0-.457-3.567,2.893,2.893,0,0,0-2.549-1.282q-3.845,0-7.089,3.633h0Zm6.952-1.348a6.266,6.266,0,0,1,.047,3.517,11.416,11.416,0,0,1-2.512,5.507,4.086,4.086,0,0,1-2.927,1.709,1.528,1.528,0,0,1-1.474-.9,5.43,5.43,0,0,1-.22-3.369,11.438,11.438,0,0,1,2.369-5.515q1.724-2,3.176-2A1.628,1.628,0,0,1,729.619,388.139Zm7.715,9.763a2.905,2.905,0,0,1-1.172.428c-0.262,0-.361-0.176-0.3-0.526q0.042-.231,2.255-5.408l2.966-6.887q1.583-3.714,2.213-4.973a4.481,4.481,0,0,1,1.2-1.652,1.933,1.933,0,0,1,1.106-.279,9.11,9.11,0,0,1,1.491.132,8.419,8.419,0,0,0,1.417.164,2.1,2.1,0,0,0,1.253-.339,1.344,1.344,0,0,0,.568-0.869,0.855,0.855,0,0,0-.268-0.819,1.524,1.524,0,0,0-1.089-.34,9.214,9.214,0,0,0-4.29,1.114,9.939,9.939,0,0,0-3.567,3.127,36.231,36.231,0,0,0-2.65,5.244l-3.165,7.215a33.145,33.145,0,0,0-2.058,5.457,1.369,1.369,0,0,0,.148,1.06,0.913,0.913,0,0,0,.8.387,7.068,7.068,0,0,0,3.216-1.192,21.719,21.719,0,0,0,3.635-2.638l-0.472-.592a21.991,21.991,0,0,1-3.238,2.186h0Zm17.5-11.686a9.229,9.229,0,0,0-1.1-.066,9.543,9.543,0,0,0-3.667.624,14.155,14.155,0,0,0-3.887,2.565,18.576,18.576,0,0,0-3.3,3.879,11.237,11.237,0,0,0-1.676,3.879,3.313,3.313,0,0,0,.284,2.367,1.5,1.5,0,0,0,1.4.674,5.244,5.244,0,0,0,2.427-.756,18.7,18.7,0,0,0,4.036-2.91l-1.093,2.236a2.708,2.708,0,0,0-.261.674,0.632,0.632,0,0,0,.117.575,0.837,0.837,0,0,0,.63.2,4.152,4.152,0,0,0,1.306-.23,11.737,11.737,0,0,0,2.28-1.068q0.614-.361,2.874-2.071l-0.43-.641a14.5,14.5,0,0,1-2.309,1.512,2.5,2.5,0,0,1-.935.345q-0.428,0-.334-0.51a16.75,16.75,0,0,1,.792-2.268q1.276-3.238,2.5-5.72l2.043-4.158-1.169.23Zm-4.409,7a9.209,9.209,0,0,1-2.628,3.526,4.763,4.763,0,0,1-2.752,1.224,1.02,1.02,0,0,1-.935-0.493,2.381,2.381,0,0,1-.1-1.611,11.615,11.615,0,0,1,1.755-4.216,9.518,9.518,0,0,1,2.662-2.926,5.218,5.218,0,0,1,2.831-.813,7.8,7.8,0,0,1,1.522.181Zm11.556-6.3h-2.77l-0.521,1.168h2.767l-2.938,6.541a17.846,17.846,0,0,0-1.311,3.616,2.073,2.073,0,0,0,.1,1.447,1.012,1.012,0,0,0,.919.444,5.818,5.818,0,0,0,2.144-.608,55.944,55.944,0,0,0,5.613-3.321l-0.51-.756a27.235,27.235,0,0,1-3.068,1.825,4.622,4.622,0,0,1-1.734.608,0.61,0.61,0,0,1-.5-0.2,0.787,0.787,0,0,1-.079-0.641,17.477,17.477,0,0,1,1.342-3.45l2.5-5.508h3.54l0.487-1.168h-3.537l2.071-4.6-2.9,1Zm23.949,10.914a1.839,1.839,0,0,1-.757.214c-0.331,0-.457-0.208-0.381-0.625a14.593,14.593,0,0,1,.853-2.335l4.237-9.929q1.7-3.978,2.106-4.718a4.388,4.388,0,0,1,1.143-1.518,1.951,1.951,0,0,1,1.118-.353,13.237,13.237,0,0,1,1.562.165,12.95,12.95,0,0,0,1.562.164,1.791,1.791,0,0,0,1.087-.32,1.292,1.292,0,0,0,.528-0.83,0.92,0.92,0,0,0-.25-0.871,1.4,1.4,0,0,0-1.03-.346,8.582,8.582,0,0,0-2.9.583,10.649,10.649,0,0,0-2.959,1.649,11.323,11.323,0,0,0-2.361,2.535,30.129,30.129,0,0,0-2.393,4.668,6.033,6.033,0,0,0-5.105,1.341,17.243,17.243,0,0,0-4.53,4.493,13.766,13.766,0,0,0-2.65,5.373,3.186,3.186,0,0,0,.2,2.246,1.527,1.527,0,0,0,1.38.765,5.983,5.983,0,0,0,2.6-.757,21.058,21.058,0,0,0,3.944-2.879l-0.966,2.009a4.39,4.39,0,0,0-.356.92,0.549,0.549,0,0,0,.164.5,0.839,0.839,0,0,0,.626.222,6.533,6.533,0,0,0,2.579-.839,34.144,34.144,0,0,0,3.851-2.465l-0.364-.625q-1.9,1.25-2.54,1.561h0Zm-0.916-6.749a25.2,25.2,0,0,1-1.986,4.033,9.157,9.157,0,0,1-2.488,2.206,3.648,3.648,0,0,1-1.752.609,1.133,1.133,0,0,1-.97-0.535,1.771,1.771,0,0,1-.217-1.374,13.692,13.692,0,0,1,1.81-4.33,10.767,10.767,0,0,1,2.723-3.35,4.244,4.244,0,0,1,2.4-.865,9.817,9.817,0,0,1,1.876.3Zm15.968,1.95a9.189,9.189,0,0,1-2.938,3.46,6.229,6.229,0,0,1-2.992,1.52,0.557,0.557,0,0,1-.459-0.246,0.727,0.727,0,0,1-.121-0.593,42.063,42.063,0,0,1,1.928-4.559,35.324,35.324,0,0,0,2.253-5.58,1.19,1.19,0,0,0-.092-0.9,0.7,0.7,0,0,0-.613-0.288,5.321,5.321,0,0,0-2.052.616,26.574,26.574,0,0,0-3.968,2.589l0.646,0.576a17.08,17.08,0,0,1,2.081-1.472,2.195,2.195,0,0,1,.892-0.3q0.342,0,.258.461a33.634,33.634,0,0,1-2.017,4.757q-1.477,3.127-1.89,4.164a7.569,7.569,0,0,0-.407,1.382,1.586,1.586,0,0,0,.121,1.2,1,1,0,0,0,.869.379,6.333,6.333,0,0,0,2.731-.839,19.369,19.369,0,0,0,4.295-2.942,10.956,10.956,0,0,0-.789,2.285,1.4,1.4,0,0,0,.175,1.142,1.021,1.021,0,0,0,.857.4q1.623,0,5.686-3.436l-0.452-.608a26.792,26.792,0,0,1-2.485,1.907,1.583,1.583,0,0,1-.728.246,0.375,0.375,0,0,1-.312-0.164,0.6,0.6,0,0,1-.066-0.476,51.65,51.65,0,0,1,2.461-5.7l2.659-5.745H804.08Zm18.242-5.276c0.2,0,.285.126,0.238,0.378q-0.054.3-1.531,3.7l-3.367,7.841h2.454l2.331-5.556a12.784,12.784,0,0,1,1.881-3.329,12.151,12.151,0,0,1,2.844-2.26,3.7,3.7,0,0,1,1.559-.69,0.439,0.439,0,0,1,.366.14,0.486,0.486,0,0,1,.063.4,11.545,11.545,0,0,1-.5,1.25l-4.386,10.043H823.6q1.033-2.565,2.922-6.625a9.734,9.734,0,0,1,1.693-2.712,11.429,11.429,0,0,1,2.842-2.087,2.971,2.971,0,0,1,1.22-.411q0.512,0,.41.559a21.562,21.562,0,0,1-1.489,3.369q-1.839,3.7-2.272,4.759a9.556,9.556,0,0,0-.578,1.849,1.858,1.858,0,0,0,.147,1.34,0.927,0.927,0,0,0,.816.485,4.2,4.2,0,0,0,1.777-.559,20.743,20.743,0,0,0,2.15-1.48q1.15-.87,1.56-1.15l-0.455-.592a21.18,21.18,0,0,1-2.38,1.709,1.336,1.336,0,0,1-.668.2c-0.319,0-.444-0.187-0.376-0.559a33.98,33.98,0,0,1,2.28-5.079q1.706-3.435,2-4.109a5.559,5.559,0,0,0,.385-1.167,1.478,1.478,0,0,0-.17-1.217,1.264,1.264,0,0,0-1.039-.394,5.976,5.976,0,0,0-2.389.813,21.986,21.986,0,0,0-3.892,2.77,10.948,10.948,0,0,0,.942-2.351,1.156,1.156,0,0,0-.118-0.936,0.961,0.961,0,0,0-.8-0.3q-2.163,0-6.987,4.01,0.3-.805.948-2.186a6.578,6.578,0,0,0,.5-1.266,0.43,0.43,0,0,0-.1-0.41,0.723,0.723,0,0,0-.513-0.148,6.754,6.754,0,0,0-2.542.772,17.743,17.743,0,0,0-3.654,2.4l0.392,0.658q2.393-1.875,3.059-1.874h0Zm20.251,1.726a13.119,13.119,0,0,0-3.219,6.377A3.777,3.777,0,0,0,836.8,399a3.274,3.274,0,0,0,2.736,1.15q2.972,0,6.168-2.9a11.612,11.612,0,0,0,3.866-6.55,4.706,4.706,0,0,0-.457-3.567,2.894,2.894,0,0,0-2.55-1.282q-3.843,0-7.088,3.633h0Zm6.952-1.348a6.266,6.266,0,0,1,.047,3.517,11.416,11.416,0,0,1-2.512,5.507,4.088,4.088,0,0,1-2.927,1.709,1.527,1.527,0,0,1-1.474-.9,5.43,5.43,0,0,1-.22-3.369,11.438,11.438,0,0,1,2.368-5.515q1.725-2,3.176-2A1.628,1.628,0,0,1,846.427,388.139Zm7.744-.079a1.964,1.964,0,0,1,.849-0.349c0.228,0,.315.149,0.261,0.445a3.365,3.365,0,0,1-.185.543l-2.667,6.254q-0.943,2.256-2.113,4.725h2.546l2.436-5.745a9.541,9.541,0,0,1,1.663-2.831,13.657,13.657,0,0,1,3.123-2.4,4.209,4.209,0,0,1,1.886-.692q0.631,0,.538.51a19.47,19.47,0,0,1-1.023,2.416q-2.962,5.819-3.231,7.282a2.185,2.185,0,0,0,.089,1.471,1,1,0,0,0,.926.452,4.344,4.344,0,0,0,1.9-.654,20.073,20.073,0,0,0,3.754-2.683l-0.318-.592q-0.855.56-1.727,1.217a3.846,3.846,0,0,1-1.723.92,0.258,0.258,0,0,1-.259-0.168,0.929,0.929,0,0,1-.01-0.506,21.983,21.983,0,0,1,1.905-4.454q1.815-3.584,2.283-4.652a5.691,5.691,0,0,0,.364-1.15,1.51,1.51,0,0,0-.159-1.184,1.113,1.113,0,0,0-.965-0.411,5.681,5.681,0,0,0-2.456.839,27.122,27.122,0,0,0-5,3.472l1.376-3.308a3.231,3.231,0,0,0,.182-0.526,0.348,0.348,0,0,0-.142-0.345,0.825,0.825,0,0,0-.537-0.148,5.866,5.866,0,0,0-2.344.661,22.8,22.8,0,0,0-3.978,2.675l0.476,0.576a13.706,13.706,0,0,1,2.285-1.657h0Zm22.7,9.776a1.839,1.839,0,0,1-.757.214q-0.5,0-.38-0.625a14.489,14.489,0,0,1,.853-2.335l4.236-9.929q1.7-3.978,2.107-4.718a4.364,4.364,0,0,1,1.143-1.518,1.948,1.948,0,0,1,1.117-.353,13.237,13.237,0,0,1,1.562.165,12.97,12.97,0,0,0,1.562.164,1.791,1.791,0,0,0,1.087-.32,1.3,1.3,0,0,0,.529-0.83,0.922,0.922,0,0,0-.25-0.871,1.4,1.4,0,0,0-1.03-.346,8.582,8.582,0,0,0-2.9.583,10.649,10.649,0,0,0-2.959,1.649,11.3,11.3,0,0,0-2.36,2.535,29.952,29.952,0,0,0-2.393,4.668,6.035,6.035,0,0,0-5.106,1.341,17.243,17.243,0,0,0-4.53,4.493,13.78,13.78,0,0,0-2.65,5.373,3.192,3.192,0,0,0,.2,2.246,1.529,1.529,0,0,0,1.38.765,5.99,5.99,0,0,0,2.6-.757,21.091,21.091,0,0,0,3.944-2.879l-0.966,2.009a4.352,4.352,0,0,0-.357.92,0.547,0.547,0,0,0,.165.5,0.835,0.835,0,0,0,.625.222,6.533,6.533,0,0,0,2.579-.839,34.132,34.132,0,0,0,3.852-2.465l-0.364-.625q-1.9,1.25-2.541,1.561h0Zm-0.916-6.749a25.2,25.2,0,0,1-1.986,4.033,9.142,9.142,0,0,1-2.488,2.206,3.645,3.645,0,0,1-1.752.609,1.131,1.131,0,0,1-.969-0.535,1.767,1.767,0,0,1-.218-1.374,13.692,13.692,0,0,1,1.81-4.33,10.767,10.767,0,0,1,2.723-3.35,4.25,4.25,0,0,1,2.4-.865,9.829,9.829,0,0,1,1.876.3Zm11.1,6.536a4.255,4.255,0,0,1-1.607.378,1.137,1.137,0,0,1-1.034-.46,2.38,2.38,0,0,1-.087-1.628,11.023,11.023,0,0,1,.464-1.693q3.505-1.413,4.6-1.956a11.439,11.439,0,0,0,3.145-2.153,4.263,4.263,0,0,0,1.154-2.1,1.774,1.774,0,0,0-.347-1.6,2.27,2.27,0,0,0-1.746-.584q-3.468,0-6.688,3.961a15.569,15.569,0,0,0-3.5,7,3.665,3.665,0,0,0,.177,2.531,1.858,1.858,0,0,0,1.709.789q2.989,0,7.876-3.83l-0.431-.723a27.782,27.782,0,0,1-3.676,2.071h0Zm-0.081-8.136a5.944,5.944,0,0,1,1.687-1.841,2.362,2.362,0,0,1,1.314-.461,1.07,1.07,0,0,1,.923.42,1.411,1.411,0,0,1,.178,1.125,3.448,3.448,0,0,1-1.286,1.891,17.135,17.135,0,0,1-4.6,2.547,19.343,19.343,0,0,1,1.785-3.681h0Zm22.618-3.361q2.148-4.728,2.484-5.352a2.21,2.21,0,0,0,.248-0.608,0.257,0.257,0,0,0-.3-0.344,8.825,8.825,0,0,0-1.694.3,2.962,2.962,0,0,0-1.049.411,0.792,0.792,0,0,0-.235.443q-1.473,5.434-4.019,13.266h0.99Zm-6.172,10.56a3.359,3.359,0,0,0-.963,1.808,1.361,1.361,0,0,0,.24,1.159,1.266,1.266,0,0,0,1.036.452,2.046,2.046,0,0,0,1.444-.608,2.983,2.983,0,0,0,.837-1.677,1.51,1.51,0,0,0-.228-1.225,1.213,1.213,0,0,0-1.03-.484,1.816,1.816,0,0,0-1.336.575h0Z" style="stroke: inherit; filter: none; fill: inherit"/>
  </g>
  <use transform="translate(-317 -271)" xlink:href="#Trouvez_la_seule_menthe_au_chocolat_du_monde_" style="stroke: #fff; filter: none; fill: none"/>
  <g transform="translate(-317 -271)" style="fill: #fff; filter: url(#filter-2)">
    <path id="La_Bossue" data-name="La Bossue" class="cls-2" d="M419.957,349.174q5.855,0,24.522,1.7,5.527,0.528,9.1.527a19.375,19.375,0,0,0,12.066-3.694,14.007,14.007,0,0,0,5.763-8.8,6.024,6.024,0,0,0-.481-4.251,3.016,3.016,0,0,0-2.712-1.554,3.969,3.969,0,0,0-2.62.912,4.039,4.039,0,0,0-1.376,2.5,7.914,7.914,0,0,0,.232,3,8.285,8.285,0,0,1,.27,3.121,5.127,5.127,0,0,1-2.106,3.151,6.414,6.414,0,0,1-4.019,1.383,37.476,37.476,0,0,1-7.725-1.348q-6.288-1.524-8.855-1.906a38.8,38.8,0,0,0-5.67-.381,71.119,71.119,0,0,0-13.666,1.818,30.194,30.194,0,0,0,5.178-6.8q3.3-5.747,10.789-23.28,4.76-11.024,7.425-15.832a64.2,64.2,0,0,1,7.292-10.7,21.856,21.856,0,0,1,5.746-4.9,7.572,7.572,0,0,1,3.5-.938,6.021,6.021,0,0,1,2.877.762,17.849,17.849,0,0,1,3.789,3.226q2.112,2.286,3.867,2.287a3.7,3.7,0,0,0,2.484-1,4.059,4.059,0,0,0,1.388-2.405q0.445-2.52-2.3-4.867a10.983,10.983,0,0,0-7.373-2.345q-7.2,0-15.163,5.16t-14.583,15.833q-4.352,7.1-11,23.221-5.018,12.2-7.371,16.1a16.554,16.554,0,0,1-4.7,5.424q-2.346,1.525-8.7,2.7l-1.261,3.167a106.758,106.758,0,0,1,15.4-1h0Zm105.749-48.026a30.613,30.613,0,0,0-3.764-.235,31.554,31.554,0,0,0-12.569,2.229,48.353,48.353,0,0,0-13.319,9.148,65.615,65.615,0,0,0-11.3,13.839,40.914,40.914,0,0,0-5.744,13.839q-0.919,5.22.973,8.444,1.391,2.4,4.786,2.4,3.57,0,8.319-2.7a64.171,64.171,0,0,0,13.829-10.38l-3.746,7.975a9.982,9.982,0,0,0-.892,2.405,2.324,2.324,0,0,0,.4,2.052,2.8,2.8,0,0,0,2.159.7,13.7,13.7,0,0,0,4.477-.821,39.5,39.5,0,0,0,7.812-3.812q2.1-1.289,9.848-7.388l-1.471-2.287a49.166,49.166,0,0,1-7.916,5.394,8.33,8.33,0,0,1-3.2,1.232q-1.464,0-1.143-1.818a60.99,60.99,0,0,1,2.712-8.092q4.374-11.552,8.568-20.407l7-14.836-4.008.821ZM510.6,326.129q-3.611,8.209-9.005,12.578t-9.432,4.368a3.462,3.462,0,0,1-3.2-1.759q-1.037-1.76-.334-5.746a42.39,42.39,0,0,1,6.014-15.041q4.692-7.535,9.125-10.438a17.356,17.356,0,0,1,9.7-2.9,25.819,25.819,0,0,1,5.214.645Zm83.312-33.308a2.2,2.2,0,0,1,1.725.68,1.774,1.774,0,0,1,.456,1.565,17.437,17.437,0,0,1-1.11,3.308l-14.662,34.081q-3.848,8.882-6.91,11.482t-9.271,2.95l-1.446,3.225a56.184,56.184,0,0,1,10.761-.938q3.921,0,7.462.176,7.411,0.468,9.694.469a36.586,36.586,0,0,0,15.729-3.721,36.149,36.149,0,0,0,12.6-9.377,25.556,25.556,0,0,0,5.828-11.985,13.2,13.2,0,0,0-.4-6.856,10.563,10.563,0,0,0-3.723-4.953,17.61,17.61,0,0,0-7.648-2.783,29.258,29.258,0,0,0,12.447-7.189,19.66,19.66,0,0,0,5.511-10.357,10.372,10.372,0,0,0-3.686-10.152q-4.74-4.167-15.277-4.167a56.905,56.905,0,0,0-24.691,5.577,54.411,54.411,0,0,0-19.264,14.822q-7.51,9.245-9.247,19.106-1.26,7.163,1.307,12.034t5.9,4.872a3.546,3.546,0,0,0,2.355-.91,3.585,3.585,0,0,0,1.285-2.143,3.253,3.253,0,0,0-.267-2.142,12.014,12.014,0,0,0-2.845-2.789,10.989,10.989,0,0,1-2.648-2.583,9.995,9.995,0,0,1-1.171-3.493,12.965,12.965,0,0,1,.114-4.139q1.435-8.158,8.224-16.29a50.846,50.846,0,0,1,17.277-13.18,48.227,48.227,0,0,1,21.085-5.048q7.494,0,10.732,3.052t2.361,8.04a20.586,20.586,0,0,1-7.409,12.355q-6.147,5.194-16.5,5.194l5.459-13.092q1.586-3.7,4.7-9.746a94.69,94.69,0,0,1-14.825,2.348L592.705,293a5.391,5.391,0,0,1,1.2-.176h0Zm15.057,22.43a8.049,8.049,0,0,1,4.458,3.9,10.189,10.189,0,0,1,.786,6.662,26.2,26.2,0,0,1-7.729,14.146q-6.356,6.339-16.6,6.339a36.307,36.307,0,0,1-8.847-1.29,21.126,21.126,0,0,0,4.078-4.985,117.971,117.971,0,0,0,6.862-14.09l5.057-11.8Q605.974,314.136,608.964,315.251Zm31.827-2.434A47.55,47.55,0,0,0,629.76,335.57q-1.248,7.1,1.864,11.2T641,350.875q10.186,0,21.14-10.35t13.246-23.368q1.434-8.149-1.566-12.725a9.8,9.8,0,0,0-8.736-4.574q-13.171,0-24.292,12.959h0Zm23.823-4.808q1.71,3.753.162,12.549a41.475,41.475,0,0,1-8.609,19.644q-5.114,6.1-10.031,6.1a5.225,5.225,0,0,1-5.052-3.226q-2.094-4.4-.752-12.021,2.208-12.547,8.117-19.673t10.884-7.125Q662.9,304.256,664.614,308.009Zm32.552-3.846a16.421,16.421,0,0,0-6.393,10.044q-1.1,6.267,3.79,13.061a42.549,42.549,0,0,1,4.421,6.969,7.379,7.379,0,0,1,.517,4.217,9.886,9.886,0,0,1-2.11,4.363,10.633,10.633,0,0,1-4.31,3.28,14.679,14.679,0,0,1-5.732,1.083,5.524,5.524,0,0,1-4.08-1.348,3.474,3.474,0,0,1-1.055-3.284q0.093-.528.266-1.29,0.243-.937.346-1.525a2.877,2.877,0,0,0-.721-2.551,3.358,3.358,0,0,0-2.619-1.085,5.009,5.009,0,0,0-3.4,1.349,5.732,5.732,0,0,0-1.887,3.4,7.457,7.457,0,0,0,2.162,7.008q2.9,2.842,9.862,2.844a23.02,23.02,0,0,0,14.4-4.656q6.087-4.656,7.18-10.865t-4.188-13.118q-3.856-5.037-4.63-7.292a9.187,9.187,0,0,1-.35-4.656,7.591,7.591,0,0,1,2.653-4.6,6.96,6.96,0,0,1,4.568-1.845q2.811,0,5.008,3.811a8.362,8.362,0,0,0,1.9,2.492,3.2,3.2,0,0,0,1.844.5,4.737,4.737,0,0,0,3.1-1.173,4.57,4.57,0,0,0,1.685-2.756,4.731,4.731,0,0,0-2.019-4.662q-2.483-2.024-7.692-2.023A19.466,19.466,0,0,0,697.166,304.163Zm38.344,0a16.417,16.417,0,0,0-6.393,10.044q-1.1,6.267,3.79,13.061a42.549,42.549,0,0,1,4.421,6.969,7.379,7.379,0,0,1,.517,4.217,9.886,9.886,0,0,1-2.11,4.363,10.639,10.639,0,0,1-4.31,3.28,14.679,14.679,0,0,1-5.732,1.083,5.524,5.524,0,0,1-4.08-1.348,3.474,3.474,0,0,1-1.055-3.284q0.093-.528.266-1.29,0.243-.937.346-1.525a2.877,2.877,0,0,0-.721-2.551,3.358,3.358,0,0,0-2.619-1.085,5.007,5.007,0,0,0-3.4,1.349,5.732,5.732,0,0,0-1.887,3.4,7.457,7.457,0,0,0,2.162,7.008q2.895,2.842,9.862,2.844a23.015,23.015,0,0,0,14.4-4.656q6.089-4.656,7.181-10.865T741.96,322.06q-3.855-5.037-4.629-7.292a9.187,9.187,0,0,1-.35-4.656,7.594,7.594,0,0,1,2.652-4.6,6.964,6.964,0,0,1,4.569-1.845q2.811,0,5.008,3.811a8.362,8.362,0,0,0,1.9,2.492,3.2,3.2,0,0,0,1.844.5,4.737,4.737,0,0,0,3.1-1.173,4.57,4.57,0,0,0,1.685-2.756,4.731,4.731,0,0,0-2.019-4.662q-2.482-2.024-7.692-2.023A19.466,19.466,0,0,0,735.51,304.163Zm53.833,21.321a32.479,32.479,0,0,1-10.069,12.343q-6.98,5.426-10.253,5.424a1.882,1.882,0,0,1-1.572-.88,2.684,2.684,0,0,1-.417-2.114q0.351-1.995,6.61-16.265,7-15.855,7.719-19.906a4.4,4.4,0,0,0-.315-3.2,2.368,2.368,0,0,0-2.1-1.028q-2.517,0-7.032,2.2t-13.6,9.236l2.215,2.052a58.5,58.5,0,0,1,7.129-5.248,7.3,7.3,0,0,1,3.059-1.085q1.172,0,.882,1.644-0.5,2.819-6.91,16.97-5.066,11.157-6.478,14.856a27.755,27.755,0,0,0-1.395,4.932q-0.518,2.935.415,4.286a3.364,3.364,0,0,0,2.979,1.351q3.744,0,9.359-2.991a66.381,66.381,0,0,0,14.717-10.5,40.3,40.3,0,0,0-2.7,8.151,5.173,5.173,0,0,0,.6,4.076,3.457,3.457,0,0,0,2.938,1.437q5.56,0,19.486-12.256l-1.551-2.17a91.656,91.656,0,0,1-8.515,6.8,5.262,5.262,0,0,1-2.5.88,1.267,1.267,0,0,1-1.067-.587,2.2,2.2,0,0,1-.228-1.7q0.433-2.466,8.435-20.319l9.111-20.494h-8.336Zm38.468,16.36a14.1,14.1,0,0,1-5.507,1.349,3.848,3.848,0,0,1-3.545-1.642q-1.029-1.641-.295-5.805a40.1,40.1,0,0,1,1.59-6.04q12.011-5.043,15.747-6.978,7.491-3.987,10.777-7.682a15.451,15.451,0,0,0,3.955-7.506q0.639-3.636-1.189-5.718t-5.985-2.081q-11.885,0-22.918,14.132-9.8,12.432-12.008,24.981-1.1,6.216.605,9.03T814.9,350.7q10.244,0,26.992-13.663l-1.477-2.581a93.807,93.807,0,0,1-12.6,7.389h0Zm-0.276-29.027a20.932,20.932,0,0,1,5.78-6.567,7.894,7.894,0,0,1,4.5-1.642,3.614,3.614,0,0,1,3.162,1.5,5.217,5.217,0,0,1,.61,4.017q-0.59,3.342-4.407,6.744-5.6,4.868-15.767,9.089a70.387,70.387,0,0,1,6.118-13.136h0Z" style="stroke: inherit; filter: none; fill: inherit"/>
  </g>
  <use transform="translate(-317 -271)" xlink:href="#La_Bossue" style="stroke: #fff; filter: none; fill: none"/>
</svg>
